<?xml version="1.0" encoding="UTF-8" standalone="no"?><svg width="2681.75" height="1425" viewBox="0 0 2681.75 1425" xmlns="http://www.w3.org/2000/svg">
<defs>
<marker id="startarrow" markerWidth="10" markerHeight="7"
refX="0" refY="3.5" orient="auto">
<polygon points="10 0, 10 7, 0 3.5" />
</marker>
<marker id="endarrow" markerWidth="10" markerHeight="7"
refX="10" refY="3.5" orient="auto">
<polygon points="0 0, 10 3.5, 0 7" />
</marker>

</defs><style>
.a15 { font-size: 15px; font-family: Times, serif; }
</style>
<rect x="879" y="1200" width="100" height="100" fill="#ffffffff" 
            stroke-width="2" stroke="#000000ff" rx="0"  />
<text dominant-baseline="middle" text-anchor="middle" 
            x="929" y="1227.5" class="a15"><tspan x = "929" dy="1.0em">dioxus-tui</tspan><tspan x = "929" dy="1.0em">v0.2.2</tspan></text><rect x="879" y="1005" width="100" height="100" fill="#ffffffff" 
            stroke-width="2" stroke="#000000ff" rx="0"  />
<text dominant-baseline="middle" text-anchor="middle" 
            x="929" y="1032.5" class="a15"><tspan x = "929" dy="1.0em">dioxus-native-core-macro</tspan><tspan x = "929" dy="1.0em">v0.2.0</tspan></text><rect x="1195" y="1005" width="100" height="100" fill="#ffffffff" 
            stroke-width="2" stroke="#000000ff" rx="0"  />
<text dominant-baseline="middle" text-anchor="middle" 
            x="1245" y="1032.5" class="a15"><tspan x = "1245" dy="1.0em">dioxus-router</tspan><tspan x = "1245" dy="1.0em">v0.3.0</tspan></text><rect x="1086.75" y="810" width="100" height="100" fill="#ffffffff" 
            stroke-width="2" stroke="#000000ff" rx="0"  />
<text dominant-baseline="middle" text-anchor="middle" 
            x="1136.75" y="837.5" class="a15"><tspan x = "1136.75" dy="1.0em">dioxus</tspan><tspan x = "1136.75" dy="1.0em">v0.3.1</tspan></text><rect x="614" y="1005" width="100" height="100" fill="#ffffffff" 
            stroke-width="2" stroke="#000000ff" rx="0"  />
<text dominant-baseline="middle" text-anchor="middle" 
            x="664" y="1032.5" class="a15"><tspan x = "664" dy="1.0em">dioxus-mobile</tspan><tspan x = "664" dy="1.0em">v0.3.0</tspan></text><rect x="112.25" y="810" width="100" height="100" fill="#ffffffff" 
            stroke-width="2" stroke="#000000ff" rx="0"  />
<text dominant-baseline="middle" text-anchor="middle" 
            x="162.25" y="837.5" class="a15"><tspan x = "162.25" dy="1.0em">dioxus-liveview</tspan><tspan x = "162.25" dy="1.0em">v0.3.0</tspan></text><rect x="614" y="810" width="100" height="100" fill="#ffffffff" 
            stroke-width="2" stroke="#000000ff" rx="0"  />
<text dominant-baseline="middle" text-anchor="middle" 
            x="664" y="837.5" class="a15"><tspan x = "664" dy="1.0em">dioxus-desktop</tspan><tspan x = "664" dy="1.0em">v0.3.0</tspan></text><rect x="1553.25" y="615" width="100" height="100" fill="#ffffffff" 
            stroke-width="2" stroke="#000000ff" rx="0"  />
<text dominant-baseline="middle" text-anchor="middle" 
            x="1603.25" y="642.5" class="a15"><tspan x = "1603.25" dy="1.0em">dioxus-native-core</tspan><tspan x = "1603.25" dy="1.0em">v0.2.0</tspan></text><rect x="412.25" y="615" width="100" height="100" fill="#ffffffff" 
            stroke-width="2" stroke="#000000ff" rx="0"  />
<text dominant-baseline="middle" text-anchor="middle" 
            x="462.25" y="642.5" class="a15"><tspan x = "462.25" dy="1.0em">dioxus-hot-reload</tspan><tspan x = "462.25" dy="1.0em">v0.1.0</tspan></text><rect x="800" y="615" width="100" height="100" fill="#ffffffff" 
            stroke-width="2" stroke="#000000ff" rx="0"  />
<text dominant-baseline="middle" text-anchor="middle" 
            x="850" y="642.5" class="a15"><tspan x = "850" dy="1.0em">dioxus-web</tspan><tspan x = "850" dy="1.0em">v0.3.0</tspan></text><rect x="1097.5" y="615" width="100" height="100" fill="#ffffffff" 
            stroke-width="2" stroke="#000000ff" rx="0"  />
<text dominant-baseline="middle" text-anchor="middle" 
            x="1147.5" y="642.5" class="a15"><tspan x = "1147.5" dy="1.0em">rsx-rosetta</tspan><tspan x = "1147.5" dy="1.0em">v0.0.0</tspan></text><rect x="1001.75" y="420" width="100" height="100" fill="#ffffffff" 
            stroke-width="2" stroke="#000000ff" rx="0"  />
<text dominant-baseline="middle" text-anchor="middle" 
            x="1051.75" y="447.5" class="a15"><tspan x = "1051.75" dy="1.0em">dioxus-html</tspan><tspan x = "1051.75" dy="1.0em">v0.3.0</tspan></text><rect x="2085" y="420" width="100" height="100" fill="#ffffffff" 
            stroke-width="2" stroke="#000000ff" rx="0"  />
<text dominant-baseline="middle" text-anchor="middle" 
            x="2135" y="447.5" class="a15"><tspan x = "2135" dy="1.0em">dioxus-core-macro</tspan><tspan x = "2135" dy="1.0em">v0.3.0</tspan></text><rect x="1185.25" y="420" width="100" height="100" fill="#ffffffff" 
            stroke-width="2" stroke="#000000ff" rx="0"  />
<text dominant-baseline="middle" text-anchor="middle" 
            x="1235.25" y="447.5" class="a15"><tspan x = "1235.25" dy="1.0em">dioxus-autofmt</tspan><tspan x = "1235.25" dy="1.0em">v0.3.0</tspan></text><rect x="2531.25" y="225" width="100" height="100" fill="#ffffffff" 
            stroke-width="2" stroke="#000000ff" rx="0"  />
<text dominant-baseline="middle" text-anchor="middle" 
            x="2581.25" y="252.5" class="a15"><tspan x = "2581.25" dy="1.0em">fermi</tspan><tspan x = "2581.25" dy="1.0em">v0.3.0</tspan></text><rect x="949.5" y="225" width="100" height="100" fill="#ffffffff" 
            stroke-width="2" stroke="#000000ff" rx="0"  />
<text dominant-baseline="middle" text-anchor="middle" 
            x="999.5" y="252.5" class="a15"><tspan x = "999.5" dy="1.0em">dioxus-ssr</tspan><tspan x = "999.5" dy="1.0em">v0.3.0</tspan></text><rect x="1204.5" y="225" width="100" height="100" fill="#ffffffff" 
            stroke-width="2" stroke="#000000ff" rx="0"  />
<text dominant-baseline="middle" text-anchor="middle" 
            x="1254.5" y="252.5" class="a15"><tspan x = "1254.5" dy="1.0em">dioxus-signals</tspan><tspan x = "1254.5" dy="1.0em">v0.0.0</tspan></text><rect x="1480" y="225" width="100" height="100" fill="#ffffffff" 
            stroke-width="2" stroke="#000000ff" rx="0"  />
<text dominant-baseline="middle" text-anchor="middle" 
            x="1530" y="252.5" class="a15"><tspan x = "1530" dy="1.0em">dioxus-rsx</tspan><tspan x = "1530" dy="1.0em">v0.0.2</tspan></text><rect x="2445.75" y="615" width="100" height="100" fill="#ffffffff" 
            stroke-width="2" stroke="#000000ff" rx="0"  />
<text dominant-baseline="middle" text-anchor="middle" 
            x="2495.75" y="642.5" class="a15"><tspan x = "2495.75" dy="1.0em">dioxus-hooks</tspan><tspan x = "2495.75" dy="1.0em">v0.3.0</tspan></text><rect x="1389.25" y="420" width="100" height="100" fill="#ffffffff" 
            stroke-width="2" stroke="#000000ff" rx="0"  />
<text dominant-baseline="middle" text-anchor="middle" 
            x="1439.25" y="447.5" class="a15"><tspan x = "1439.25" dy="1.0em">dioxus-interpreter-js</tspan><tspan x = "1439.25" dy="1.0em">v0.3.0</tspan></text><rect x="1145.749" y="30" width="100" height="100" fill="#ffffffff" 
            stroke-width="2" stroke="#000000ff" rx="0"  />
<text dominant-baseline="middle" text-anchor="middle" 
            x="1195.749" y="57.5" class="a15"><tspan x = "1195.749" dy="1.0em">dioxus-guide</tspan><tspan x = "1195.749" dy="1.0em">v0.0.1</tspan></text><rect x="1305.75" y="30" width="100" height="100" fill="#ffffffff" 
            stroke-width="2" stroke="#000000ff" rx="0"  />
<text dominant-baseline="middle" text-anchor="middle" 
            x="1355.75" y="57.5" class="a15"><tspan x = "1355.75" dy="1.0em">dioxus-core</tspan><tspan x = "1355.75" dy="1.0em">v0.3.0</tspan></text><text dominant-baseline="middle" text-anchor="middle" 
            x="1530" y="162.5" class="a15"><tspan x = "1530" dy="1.0em">0.3.0</tspan></text><text dominant-baseline="middle" text-anchor="middle" 
            x="1305.125" y="162.5" class="a15"><tspan x = "1305.125" dy="1.0em">0.3.0</tspan></text><text dominant-baseline="middle" text-anchor="middle" 
            x="999.5" y="162.5" class="a15"><tspan x = "999.5" dy="1.0em">0.3.0</tspan></text><text dominant-baseline="middle" text-anchor="middle" 
            x="2581.25" y="162.5" class="a15"><tspan x = "2581.25" dy="1.0em">0.3.0</tspan></text><text dominant-baseline="middle" text-anchor="middle" 
            x="1235.25" y="357.5" class="a15"><tspan x = "1235.25" dy="1.0em">0.0.2</tspan></text><text dominant-baseline="middle" text-anchor="middle" 
            x="2135" y="357.5" class="a15"><tspan x = "2135" dy="1.0em">0.0.2</tspan></text><text dominant-baseline="middle" text-anchor="middle" 
            x="1134.25" y="337.5" class="a15"><tspan x = "1134.25" dy="1.0em">0.0.2</tspan></text><text dominant-baseline="middle" text-anchor="middle" 
            x="1147.5" y="552.5" class="a15"><tspan x = "1147.5" dy="1.0em">0.3.0</tspan></text><text dominant-baseline="middle" text-anchor="middle" 
            x="998" y="552.5" class="a15"><tspan x = "998" dy="1.0em">0.3.0</tspan></text><text dominant-baseline="middle" text-anchor="middle" 
            x="903" y="552.5" class="a15"><tspan x = "903" dy="1.0em">0.3.0</tspan></text><text dominant-baseline="middle" text-anchor="middle" 
            x="563.5" y="567.5" class="a15"><tspan x = "563.5" dy="1.0em">0.3.0</tspan></text><text dominant-baseline="middle" text-anchor="middle" 
            x="2061" y="552.5" class="a15"><tspan x = "2061" dy="1.0em">0.3.0</tspan></text><text dominant-baseline="middle" text-anchor="middle" 
            x="1603.25" y="552.5" class="a15"><tspan x = "1603.25" dy="1.0em">0.3.0</tspan></text><text dominant-baseline="middle" text-anchor="middle" 
            x="781" y="747.5" class="a15"><tspan x = "781" dy="1.0em">0.3.0</tspan></text><text dominant-baseline="middle" text-anchor="middle" 
            x="664" y="747.5" class="a15"><tspan x = "664" dy="1.0em">0.1.0</tspan></text><text dominant-baseline="middle" text-anchor="middle" 
            x="162.25" y="747.5" class="a15"><tspan x = "162.25" dy="1.0em">0.1.0</tspan></text><text dominant-baseline="middle" text-anchor="middle" 
            x="664" y="942.5" class="a15"><tspan x = "664" dy="1.0em">0.3.0</tspan></text><text dominant-baseline="middle" text-anchor="middle" 
            x="2124.5" y="747.5" class="a15"><tspan x = "2124.5" dy="1.0em">0.3.0</tspan></text><text dominant-baseline="middle" text-anchor="middle" 
            x="2495.75" y="747.5" class="a15"><tspan x = "2495.75" dy="1.0em">0.3.0</tspan></text><text dominant-baseline="middle" text-anchor="middle" 
            x="2394.5" y="747.5" class="a15"><tspan x = "2394.5" dy="1.0em">0.0.2</tspan></text><text dominant-baseline="middle" text-anchor="middle" 
            x="2219.5" y="747.5" class="a15"><tspan x = "2219.5" dy="1.0em">0.3.0</tspan></text><text dominant-baseline="middle" text-anchor="middle" 
            x="1460" y="747.5" class="a15"><tspan x = "1460" dy="1.0em">0.3.0</tspan></text><text dominant-baseline="middle" text-anchor="middle" 
            x="1136.75" y="747.5" class="a15"><tspan x = "1136.75" dy="1.0em">0.1.0</tspan></text><text dominant-baseline="middle" text-anchor="middle" 
            x="1190.875" y="942.5" class="a15"><tspan x = "1190.875" dy="1.0em">0.3.1</tspan></text><text dominant-baseline="middle" text-anchor="middle" 
            x="929" y="942.5" class="a15"><tspan x = "929" dy="1.0em">0.2.0</tspan></text><text dominant-baseline="middle" text-anchor="middle" 
            x="1024.75" y="942.5" class="a15"><tspan x = "1024.75" dy="1.0em">0.3.1</tspan></text><text dominant-baseline="middle" text-anchor="middle" 
            x="2666.75" y="1137.5" class="a15"><tspan x = "2666.75" dy="1.0em">0.3.0</tspan></text><text dominant-baseline="middle" text-anchor="middle" 
            x="834" y="1137.5" class="a15"><tspan x = "834" dy="1.0em">0.3.0</tspan></text><text dominant-baseline="middle" text-anchor="middle" 
            x="47.5" y="1137.5" class="a15"><tspan x = "47.5" dy="1.0em">0.1.0</tspan></text><text dominant-baseline="middle" text-anchor="middle" 
            x="1159.5" y="1137.5" class="a15"><tspan x = "1159.5" dy="1.0em">0.2.0</tspan></text><text dominant-baseline="middle" text-anchor="middle" 
            x="1330.5" y="1137.5" class="a15"><tspan x = "1330.5" dy="1.0em">0.3.1</tspan></text><text dominant-baseline="middle" text-anchor="middle" 
            x="929" y="1137.5" class="a15"><tspan x = "929" dy="1.0em">0.2.0</tspan></text><text dominant-baseline="middle" text-anchor="middle" 
            x="2495.75" y="455" class="a15"><tspan x = "2495.75" dy="1.0em">0.3.0</tspan></text><text dominant-baseline="middle" text-anchor="middle" 
            x="1435" y="162.5" class="a15"><tspan x = "1435" dy="1.0em">0.3.0</tspan></text><text dominant-baseline="middle" text-anchor="middle" 
            x="1330.25" y="357.5" class="a15"><tspan x = "1330.25" dy="1.0em">0.0.2</tspan></text><text dominant-baseline="middle" text-anchor="middle" 
            x="1127" y="260" class="a15"><tspan x = "1127" dy="1.0em">0.3.0</tspan></text><text dominant-baseline="middle" text-anchor="middle" 
            x="1382" y="260" class="a15"><tspan x = "1382" dy="1.0em">0.3.0</tspan></text><text dominant-baseline="middle" text-anchor="middle" 
            x="462.25" y="357.5" class="a15"><tspan x = "462.25" dy="1.0em">0.0.2</tspan></text><text dominant-baseline="middle" text-anchor="middle" 
            x="1885.25" y="357.5" class="a15"><tspan x = "1885.25" dy="1.0em">0.3.0</tspan></text><text dominant-baseline="middle" text-anchor="middle" 
            x="1433.5" y="650" class="a15"><tspan x = "1433.5" dy="1.0em">0.3.0</tspan></text><text dominant-baseline="middle" text-anchor="middle" 
            x="764.5" y="552.5" class="a15"><tspan x = "764.5" dy="1.0em">0.3.0</tspan></text><text dominant-baseline="middle" text-anchor="middle" 
            x="1348.5" y="552.5" class="a15"><tspan x = "1348.5" dy="1.0em">0.3.0</tspan></text><text dominant-baseline="middle" text-anchor="middle" 
            x="1253.5" y="552.5" class="a15"><tspan x = "1253.5" dy="1.0em">0.3.0</tspan></text><text dominant-baseline="middle" text-anchor="middle" 
            x="669.5" y="552.5" class="a15"><tspan x = "669.5" dy="1.0em">0.3.0</tspan></text><path id="arrow0" d="M 1405.75 82.19730941704036 C 1435.63479102182 84.8239547265815, 2495.75 148, 2495.75 178 S 2495.75 245.5, 2495.75 275.5 S 2495.75 343, 2495.75 373 S 2495.75 452.5, 2495.75 482.5 S 2495.75 538, 2495.75 568 S 2495.75 585, 2495.75 615 " stroke="#000000ff" stroke-width="2"   marker-end="url(#endarrow)" 
            fill="transparent" />
<text><textPath href="#arrow0" startOffset="50%" text-anchor="middle" class="a15"></textPath></text><path id="arrow1" d="M 1405.75 98.42546063651591 C 1429.8996414862659 116.22419138016242, 1530 160, 1530 190 S 1530 195, 1530 225 " stroke="#000000ff" stroke-width="2"   marker-end="url(#endarrow)" 
            fill="transparent" />
<text><textPath href="#arrow1" startOffset="50%" text-anchor="middle" class="a15"></textPath></text><path id="arrow2" d="M 1319.1022727272727 130 C 1312.2958805619091 159.21768344156112, 1315.2104109327452 162.10349832749077, 1305.125 190 S 1303.232710347733 196.2768632367883, 1294.5735294117646 225 " stroke="#000000ff" stroke-width="2"   marker-end="url(#endarrow)" 
            fill="transparent" />
<text><textPath href="#arrow2" startOffset="50%" text-anchor="middle" class="a15"></textPath></text><path id="arrow3" d="M 1305.75 88.30188679245283 C 1277.2787754513333 97.75648211427418, 999.5 160, 999.5 190 S 999.5 195, 999.5 225 " stroke="#000000ff" stroke-width="2"   marker-end="url(#endarrow)" 
            fill="transparent" />
<text><textPath href="#arrow3" startOffset="50%" text-anchor="middle" class="a15"></textPath></text><path id="arrow4" d="M 1405.75 82.29071220324865 C 1435.624850797259 85.0280996149092, 2581.25 160, 2581.25 190 S 2581.25 195, 2581.25 225 " stroke="#000000ff" stroke-width="2"   marker-end="url(#endarrow)" 
            fill="transparent" />
<text><textPath href="#arrow4" startOffset="50%" text-anchor="middle" class="a15"></textPath></text><path id="arrow5" d="M 1480 285.19462465245596 C 1452.2208955726323 296.52252636519165, 1235.25 355, 1235.25 385 S 1235.25 390, 1235.25 420 " stroke="#000000ff" stroke-width="2"   marker-end="url(#endarrow)" 
            fill="transparent" />
<text><textPath href="#arrow5" startOffset="50%" text-anchor="middle" class="a15"></textPath></text><path id="arrow6" d="M 1580 279.7413793103448 C 1609.4745957292087 285.33138884519474, 2135 355, 2135 385 S 2135 390, 2135 420 " stroke="#000000ff" stroke-width="2"   marker-end="url(#endarrow)" 
            fill="transparent" />
<text><textPath href="#arrow6" startOffset="50%" text-anchor="middle" class="a15"></textPath></text><path id="arrow7" d="M 1405.409090909091 130 C 1418.678539227154 156.90579382464404, 1435 160, 1435 190 S 1435 245.5, 1435 275.5 S 1051.75 343, 1051.75 373 S 1051.75 390, 1051.75 420 " stroke="#000000ff" stroke-width="2"   marker-end="url(#endarrow)" 
            fill="transparent" />
<text><textPath href="#arrow7" startOffset="50%" text-anchor="middle" class="a15"></textPath></text><path id="arrow8" d="M 1480 281.0687795010115 C 1450.846680584814 288.14578219114424, 1155.6824148031026 345.9166189547202, 1134.25 365 S 1116.1594386859676 398.03493805171144, 1101.75 424.3478260869565 " stroke="#000000ff" stroke-width="2"   marker-end="url(#endarrow)" 
            fill="transparent" />
<text><textPath href="#arrow8" startOffset="50%" text-anchor="middle" class="a15"></textPath></text><path id="arrow9" d="M 1480 290.7367668097282 C 1454.6111953134189 306.71827476694665, 1330.25 355, 1330.25 385 S 1330.25 440.5, 1330.25 470.5 S 1218.7733769037459 545.0378804681836, 1200.5 568 S 1195.2530844761961 586.1768144931773, 1186.9329896907216 615 " stroke="#000000ff" stroke-width="2"   marker-end="url(#endarrow)" 
            fill="transparent" />
<text><textPath href="#arrow9" startOffset="50%" text-anchor="middle" class="a15"></textPath></text><path id="arrow10" d="M 1185.25 513.8247011952192 C 1170.3849695236302 539.8829219506084, 1147.5 550, 1147.5 580 S 1147.5 585, 1147.5 615 " stroke="#000000ff" stroke-width="2"   marker-end="url(#endarrow)" 
            fill="transparent" />
<text><textPath href="#arrow10" startOffset="50%" text-anchor="middle" class="a15"></textPath></text><path id="arrow11" d="M 1305.75 92.02453987730061 C 1278.714669703515 105.02803616714368, 1127 148, 1127 178 S 1127 257.5, 1127 287.5 S 664 343, 664 373 S 664 440.5, 664 470.5 S 850 538, 850 568 S 850 585, 850 615 " stroke="#000000ff" stroke-width="2"   marker-end="url(#endarrow)" 
            fill="transparent" />
<text><textPath href="#arrow11" startOffset="50%" text-anchor="middle" class="a15"></textPath></text><path id="arrow12" d="M 1389.25 476.6066066066066 C 1360.2456770790025 484.27141266380715, 1024.9015959956405 567.2174577221698, 998 580 S 924.6802038705894 630.6681517967472, 900 647.7235772357724 " stroke="#000000ff" stroke-width="2"   marker-end="url(#endarrow)" 
            fill="transparent" />
<text><textPath href="#arrow12" startOffset="50%" text-anchor="middle" class="a15"></textPath></text><path id="arrow13" d="M 1001.75 492.22222222222223 C 979.3277204394902 512.1531373871198, 921.6972166908599 556.9261067686957, 903 580 S 900.8567954833088 586.5061565685266, 891.4705882352941 615 " stroke="#000000ff" stroke-width="2"   marker-end="url(#endarrow)" 
            fill="transparent" />
<text><textPath href="#arrow13" startOffset="50%" text-anchor="middle" class="a15"></textPath></text><path id="arrow14" d="M 1369.142857142857 130 C 1376.9049396995797 158.97844154509735, 1382 148, 1382 178 S 1382 257.5, 1382 287.5 S 541.75 343, 541.75 373 S 541.75 440.5, 541.75 470.5 S 615.825123642764 547.3482873606188, 616.5 568 S 536.2444295445515 628.2304861445145, 512.25 646.2379110251451 " stroke="#000000ff" stroke-width="2"   marker-end="url(#endarrow)" 
            fill="transparent" />
<text><textPath href="#arrow14" startOffset="50%" text-anchor="middle" class="a15"></textPath></text><path id="arrow15" d="M 1480 277.63725725245746 C 1450.1655426498144 280.7845028132538, 462.25 355, 462.25 385 S 462.25 440.5, 462.25 470.5 S 462.25 538, 462.25 568 S 462.25 585, 462.25 615 " stroke="#000000ff" stroke-width="2"   marker-end="url(#endarrow)" 
            fill="transparent" />
<text><textPath href="#arrow15" startOffset="50%" text-anchor="middle" class="a15"></textPath></text><path id="arrow16" d="M 1001.75 476.7458175930923 C 972.7859084627033 484.5612767235015, 589.091328307566 579.9117310966111, 563.5 595 S 534.3495797430935 621.761041547324, 512.25 642.0491803278688 " stroke="#000000ff" stroke-width="2"   marker-end="url(#endarrow)" 
            fill="transparent" />
<text><textPath href="#arrow16" startOffset="50%" text-anchor="middle" class="a15"></textPath></text><path id="arrow17" d="M 1305.75 85.27894421115776 C 1276.3972482885674 91.47700576030252, 914 138, 914 168 S 914 295.5, 914 325.5 S 1885.25 355, 1885.25 385 S 1885.25 440.5, 1885.25 470.5 S 1885.25 538, 1885.25 568 S 1681.317370852667 644.9706810400439, 1653.25 655.5642023346303 " stroke="#000000ff" stroke-width="2"   marker-end="url(#endarrow)" 
            fill="transparent" />
<text><textPath href="#arrow17" startOffset="50%" text-anchor="middle" class="a15"></textPath></text><path id="arrow18" d="M 2087.7272727272725 520 C 2075.5200081216744 547.4040634003228, 2075.344780548378 555.3069398177363, 2061 580 S 1682.6875220495087 654.3074768937995, 1653.25 660.0895436164067 " stroke="#000000ff" stroke-width="2"   marker-end="url(#endarrow)" 
            fill="transparent" />
<text><textPath href="#arrow18" startOffset="50%" text-anchor="middle" class="a15"></textPath></text><path id="arrow19" d="M 1101.75 475.22317188983857 C 1131.115927657876 481.35850340430454, 1603.25 550, 1603.25 580 S 1603.25 585, 1603.25 615 " stroke="#000000ff" stroke-width="2"   marker-end="url(#endarrow)" 
            fill="transparent" />
<text><textPath href="#arrow19" startOffset="50%" text-anchor="middle" class="a15"></textPath></text><path id="arrow20" d="M 1305.75 85.45961002785515 C 1276.4407643051175 91.86028991219719, 882 148, 882 178 S 882 245.5, 882 275.5 S 1747.75 343, 1747.75 373 S 1747.75 440.5, 1747.75 470.5 S 1486.5 538, 1486.5 568 S 1486.5 635.5, 1486.5 665.5 S 806.1762484424481 759.5622377892727, 781 775 S 736.0349186028773 816.5438252038634, 714 836.9021739130435 " stroke="#000000ff" stroke-width="2"   marker-end="url(#endarrow)" 
            fill="transparent" />
<text><textPath href="#arrow20" startOffset="50%" text-anchor="middle" class="a15"></textPath></text><path id="arrow21" d="M 1436.3163265306123 520 C 1434.5591444667418 549.9484943059649, 1433.5 538, 1433.5 568 S 1433.5 647.5, 1433.5 677.5 S 750.4356508570138 778.8779970581502, 728 798 S 729.9735335622435 794.8625876702796, 714 820.2564102564103 " stroke="#000000ff" stroke-width="2"   marker-end="url(#endarrow)" 
            fill="transparent" />
<text><textPath href="#arrow21" startOffset="50%" text-anchor="middle" class="a15"></textPath></text><path id="arrow22" d="M 1001.75 480.48617731172544 C 974.0850788371625 492.09014805686223, 764.5 550, 764.5 580 S 764.5 635.5, 764.5 665.5 S 730.7559143838967 736.3488532838563, 717 763 S 711.7530844761962 781.1768144931772, 703.4329896907217 810 " stroke="#000000ff" stroke-width="2"   marker-end="url(#endarrow)" 
            fill="transparent" />
<text><textPath href="#arrow22" startOffset="50%" text-anchor="middle" class="a15"></textPath></text><path id="arrow23" d="M 512.25 680.5586987270156 C 537.7202615924597 696.4100637916298, 664 745, 664 775 S 664 780, 664 810 " stroke="#000000ff" stroke-width="2"   marker-end="url(#endarrow)" 
            fill="transparent" />
<text><textPath href="#arrow23" startOffset="50%" text-anchor="middle" class="a15"></textPath></text><path id="arrow24" d="M 1405.75 83.71634433067881 C 1435.423925179667 88.12748527509652, 2040 148, 2040 178 S 2040 245.5, 2040 275.5 S 1657.25 343, 1657.25 373 S 1657.25 440.5, 1657.25 470.5 S 1348.5 550, 1348.5 580 S 1348.5 635.5, 1348.5 665.5 S 632.4668257278275 757.5113010476908, 603 763 S 241.46536587083395 847.3508346615251, 212.25 854.167167769092 " stroke="#000000ff" stroke-width="2"   marker-end="url(#endarrow)" 
            fill="transparent" />
<text><textPath href="#arrow24" startOffset="50%" text-anchor="middle" class="a15"></textPath></text><path id="arrow25" d="M 1389.25 487.1073094867807 C 1364.4917266463995 504.0492072715152, 1253.5 550, 1253.5 580 S 1253.5 635.5, 1253.5 665.5 S 579.3238469579414 756.858220332785, 550 763 S 241.23173716307073 845.5651867544649, 212.25 853.314955203308 " stroke="#000000ff" stroke-width="2"   marker-end="url(#endarrow)" 
            fill="transparent" />
<text><textPath href="#arrow25" startOffset="50%" text-anchor="middle" class="a15"></textPath></text><path id="arrow26" d="M 1001.75 477.69769069279215 C 973.0783655686247 486.52590563317364, 669.5 550, 669.5 580 S 669.5 635.5, 669.5 665.5 S 275.0090479793832 744.6121132816414, 252.5 763 S 228.9944977261835 797.9430455258268, 212.25 822.8352490421456 " stroke="#000000ff" stroke-width="2"   marker-end="url(#endarrow)" 
            fill="transparent" />
<text><textPath href="#arrow26" startOffset="50%" text-anchor="middle" class="a15"></textPath></text><path id="arrow27" d="M 412.25 675 C 384.39569927344223 686.1417202906231, 162.25 745, 162.25 775 S 162.25 780, 162.25 810 " stroke="#000000ff" stroke-width="2"   marker-end="url(#endarrow)" 
            fill="transparent" />
<text><textPath href="#arrow27" startOffset="50%" text-anchor="middle" class="a15"></textPath></text><path id="arrow28" d="M 664 910 C 664 940, 664 940, 664 970 S 664 975, 664 1005 " stroke="#000000ff" stroke-width="2"   marker-end="url(#endarrow)" 
            fill="transparent" />
<text><textPath href="#arrow28" startOffset="50%" text-anchor="middle" class="a15"></textPath></text><path id="arrow29" d="M 1405.75 82.76134122287968 C 1435.5686574801123 86.05492074731022, 2268 148, 2268 178 S 2268 245.5, 2268 275.5 S 2044.75 343, 2044.75 373 S 2044.75 440.5, 2044.75 470.5 S 2124.5 538, 2124.5 568 S 2124.5 635.5, 2124.5 665.5 S 2124.5 745, 2124.5 775 S 1216.6337555789046 855.1543814861523, 1186.75 857.7927810958192 " stroke="#000000ff" stroke-width="2"   marker-end="url(#endarrow)" 
            fill="transparent" />
<text><textPath href="#arrow29" startOffset="50%" text-anchor="middle" class="a15"></textPath></text><path id="arrow30" d="M 2495.75 715 C 2495.75 745, 2495.75 745, 2495.75 775 S 1216.6892847931958 856.4993709089792, 1186.75 858.4070464767616 " stroke="#000000ff" stroke-width="2"   marker-end="url(#endarrow)" 
            fill="transparent" />
<text><textPath href="#arrow30" startOffset="50%" text-anchor="middle" class="a15"></textPath></text><path id="arrow31" d="M 1580 277.91840381179276 C 1609.7976557863715 281.39686750097013, 2394.5 343, 2394.5 373 S 2394.5 440.5, 2394.5 470.5 S 2394.5 538, 2394.5 568 S 2394.5 635.5, 2394.5 665.5 S 2394.5 745, 2394.5 775 S 1216.6789385813756 856.212565581491, 1186.75 858.2762117217603 " stroke="#000000ff" stroke-width="2"   marker-end="url(#endarrow)" 
            fill="transparent" />
<text><textPath href="#arrow31" startOffset="50%" text-anchor="middle" class="a15"></textPath></text><path id="arrow32" d="M 2185 511.1764705882353 C 2200.569344027253 536.8200960448871, 2219.5 538, 2219.5 568 S 2219.5 635.5, 2219.5 665.5 S 2219.5 745, 2219.5 775 S 1216.6536024792733 855.5879875105288, 1186.75 857.9910186717088 " stroke="#000000ff" stroke-width="2"   marker-end="url(#endarrow)" 
            fill="transparent" />
<text><textPath href="#arrow32" startOffset="50%" text-anchor="middle" class="a15"></textPath></text><path id="arrow33" d="M 1056.9795918367347 520 C 1060.1003238186988 549.8372423641453, 1062 538, 1062 568 S 1062 680.5, 1062 710.5 S 1462.4410091117813 768.6534502107908, 1460 775 S 1215.6011876240784 844.6526372236491, 1186.75 852.8751047778709 " stroke="#000000ff" stroke-width="2"   marker-end="url(#endarrow)" 
            fill="transparent" />
<text><textPath href="#arrow33" startOffset="50%" text-anchor="middle" class="a15"></textPath></text><path id="arrow34" d="M 512.25 669.2340261739799 C 541.8287923591062 674.2435214157069, 1136.75 745, 1136.75 775 S 1136.75 780, 1136.75 810 " stroke="#000000ff" stroke-width="2"   marker-end="url(#endarrow)" 
            fill="transparent" />
<text><textPath href="#arrow34" startOffset="50%" text-anchor="middle" class="a15"></textPath></text><path id="arrow35" d="M 1174.9886363636363 910 C 1182.667224768028 939.0006772354706, 1179.9813386388187 942.407884773136, 1190.875 970 S 1193.1432525848584 976.6197929515179, 1202.8676470588234 1005 " stroke="#000000ff" stroke-width="2"   marker-end="url(#endarrow)" 
            fill="transparent" />
<text><textPath href="#arrow35" startOffset="50%" text-anchor="middle" class="a15"></textPath></text><path id="arrow36" d="M 1553.25 668.7735849056604 C 1523.5860273994024 673.251165675562, 929 733, 929 763 S 929 830.5, 929 860.5 S 929 940, 929 970 S 929 975, 929 1005 " stroke="#000000ff" stroke-width="2"   marker-end="url(#endarrow)" 
            fill="transparent" />
<text><textPath href="#arrow36" startOffset="50%" text-anchor="middle" class="a15"></textPath></text><path id="arrow37" d="M 1086.75 891.6091954022988 C 1068.1398717015174 915.1392426762424, 1045.0370192384557 948.0541695882738, 1024.75 970 S 998.1921877391154 1001.9069122568932, 979 1024.964664310954 " stroke="#000000ff" stroke-width="2"   marker-end="url(#endarrow)" 
            fill="transparent" />
<text><textPath href="#arrow37" startOffset="50%" text-anchor="middle" class="a15"></textPath></text><path id="arrow38" d="M 1405.75 81.90513219284604 C 1435.663268881286 84.18468145440595, 2666.75 148, 2666.75 178 S 2666.75 245.5, 2666.75 275.5 S 2666.75 343, 2666.75 373 S 2666.75 440.5, 2666.75 470.5 S 2666.75 538, 2666.75 568 S 2666.75 635.5, 2666.75 665.5 S 2666.75 733, 2666.75 763 S 2666.75 830.5, 2666.75 860.5 S 2666.75 928, 2666.75 958 S 2666.75 1025.5, 2666.75 1055.5 S 2666.75 1135, 2666.75 1165 S 1008.9631243368974 1247.2723015217418, 979 1248.759305210918 " stroke="#000000ff" stroke-width="2"   marker-end="url(#endarrow)" 
            fill="transparent" />
<text><textPath href="#arrow38" startOffset="50%" text-anchor="middle" class="a15"></textPath></text><path id="arrow39" d="M 1051.3673469387754 520 C 1051.1377618252673 549.9991214983982, 1051 538, 1051 568 S 1051 635.5, 1051 665.5 S 834 733, 834 763 S 834 830.5, 834 860.5 S 834 928, 834 958 S 834 1025.5, 834 1055.5 S 834 1135, 834 1165 S 859.928782414167 1196.4849500743455, 879 1219.642857142857 " stroke="#000000ff" stroke-width="2"   marker-end="url(#endarrow)" 
            fill="transparent" />
<text><textPath href="#arrow39" startOffset="50%" text-anchor="middle" class="a15"></textPath></text><path id="arrow40" d="M 412.25 671.2860808210391 C 383.15563181490455 678.6016628149823, 47.5 733, 47.5 763 S 47.5 830.5, 47.5 860.5 S 47.5 928, 47.5 958 S 47.5 1025.5, 47.5 1055.5 S 47.5 1135, 47.5 1165 S 849.1466495749177 1244.5562933028232, 879 1247.5189725627554 " stroke="#000000ff" stroke-width="2"   marker-end="url(#endarrow)" 
            fill="transparent" />
<text><textPath href="#arrow40" startOffset="50%" text-anchor="middle" class="a15"></textPath></text><path id="arrow41" d="M 1553.25 669.3001316366827 C 1523.6841764803573 674.3856089599385, 1008.5 733, 1008.5 763 S 1008.5 830.5, 1008.5 860.5 S 1159.5 928, 1159.5 958 S 1159.5 1025.5, 1159.5 1055.5 S 1159.5 1135, 1159.5 1165 S 1006.7221481516541 1228.1927854360556, 979 1239.6593673965938 " stroke="#000000ff" stroke-width="2"   marker-end="url(#endarrow)" 
            fill="transparent" />
<text><textPath href="#arrow41" startOffset="50%" text-anchor="middle" class="a15"></textPath></text><path id="arrow42" d="M 1186.75 874.5185185185185 C 1212.6925915967108 889.5844383791268, 1330.5 928, 1330.5 958 S 1330.5 1025.5, 1330.5 1055.5 S 1330.5 1135, 1330.5 1165 S 1008.2634993821197 1237.7492763679145, 979 1244.355909694555 " stroke="#000000ff" stroke-width="2"   marker-end="url(#endarrow)" 
            fill="transparent" />
<text><textPath href="#arrow42" startOffset="50%" text-anchor="middle" class="a15"></textPath></text><path id="arrow43" d="M 929 1105 C 929 1135, 929 1135, 929 1165 S 929 1170, 929 1200 " stroke="#000000ff" stroke-width="2"   marker-end="url(#endarrow)" 
            fill="transparent" />
<text><textPath href="#arrow43" startOffset="50%" text-anchor="middle" class="a15"></textPath></text></svg>